<svg xmlns="http://www.w3.org/2000/svg">
  <symbol id="warehouse" viewBox="0 0 24 24">
    <path d="M3 21V9l9-5 9 5v12"/>
    <path d="M7 21v-8h10v8M7 17h10M10 13v8M14 13v8"/>
  </symbol>
  <symbol id="dashboard" viewBox="0 0 24 24">
    <rect x="3" y="3" width="7" height="7" rx="1"/>
    <rect x="14" y="3" width="7" height="7" rx="1"/>
    <rect x="3" y="14" width="7" height="7" rx="1"/>
    <rect x="14" y="14" width="7" height="7" rx="1"/>
  </symbol>
  <symbol id="chart" viewBox="0 0 24 24">
    <path d="M4 20V10M10 20V4M16 20v-7M22 20H2"/>
  </symbol>
  <symbol id="package" viewBox="0 0 24 24">
    <path d="m4 7 8-4 8 4-8 4-8-4Z"/>
    <path d="m4 7 8 4 8-4v10l-8 4-8-4V7Z"/>
    <path d="M12 11v10"/>
  </symbol>
  <symbol id="history" viewBox="0 0 24 24">
    <path d="M3 12a9 9 0 1 0 3-6.7L3 8"/>
    <path d="M3 3v5h5M12 7v5l3 2"/>
  </symbol>
  <symbol id="backup" viewBox="0 0 24 24">
    <ellipse cx="12" cy="5" rx="8" ry="3"/>
    <path d="M4 5v6c0 1.7 3.6 3 8 3s8-1.3 8-3V5"/>
    <path d="M4 11v6c0 1.7 3.6 3 8 3 1.1 0 2.1-.1 3-.2"/>
    <path d="m18 15 3 3-3 3M21 18h-6"/>
  </symbol>
  <symbol id="settings" viewBox="0 0 24 24">
    <circle cx="12" cy="12" r="3"/>
    <path d="M19.4 15a1.7 1.7 0 0 0 .3 1.9l.1.1-2.8 2.8-.1-.1a1.7 1.7 0 0 0-1.9-.3 1.7 1.7 0 0 0-1 1.6v.2h-4V21a1.7 1.7 0 0 0-1-1.6 1.7 1.7 0 0 0-1.9.3l-.1.1L4.2 17l.1-.1a1.7 1.7 0 0 0 .3-1.9A1.7 1.7 0 0 0 3 14H2.8v-4H3a1.7 1.7 0 0 0 1.6-1 1.7 1.7 0 0 0-.3-1.9L4.2 7 7 4.2l.1.1a1.7 1.7 0 0 0 1.9.3A1.7 1.7 0 0 0 10 3V2.8h4V3a1.7 1.7 0 0 0 1 1.6 1.7 1.7 0 0 0 1.9-.3l.1-.1L19.8 7l-.1.1a1.7 1.7 0 0 0-.3 1.9 1.7 1.7 0 0 0 1.6 1h.2v4H21a1.7 1.7 0 0 0-1.6 1Z"/>
  </symbol>
  <symbol id="search" viewBox="0 0 24 24">
    <circle cx="11" cy="11" r="7"/>
    <path d="m20 20-4-4"/>
  </symbol>
  <symbol id="plus" viewBox="0 0 24 24">
    <path d="M12 5v14M5 12h14"/>
  </symbol>
  <symbol id="menu" viewBox="0 0 24 24">
    <path d="M4 7h16M4 12h16M4 17h16"/>
  </symbol>
  <symbol id="close" viewBox="0 0 24 24">
    <path d="m6 6 12 12M18 6 6 18"/>
  </symbol>
  <symbol id="check" viewBox="0 0 24 24">
    <path d="m5 12 4 4L19 6"/>
  </symbol>
  <symbol id="check-circle" viewBox="0 0 24 24">
    <circle cx="12" cy="12" r="9"/>
    <path d="m8 12 2.7 2.7L16.5 9"/>
  </symbol>
  <symbol id="alert-triangle" viewBox="0 0 24 24">
    <path d="M10.3 4.3 2.7 17.5A1.7 1.7 0 0 0 4.2 20h15.2a1.7 1.7 0 0 0 1.5-2.5L13.3 4.3a1.7 1.7 0 0 0-3 0Z"/>
    <path d="M12 9v4M12 17h.01"/>
  </symbol>
  <symbol id="info" viewBox="0 0 24 24">
    <circle cx="12" cy="12" r="9"/>
    <path d="M12 11v5M12 8h.01"/>
  </symbol>
  <symbol id="server" viewBox="0 0 24 24">
    <rect x="3" y="4" width="18" height="6" rx="2"/>
    <rect x="3" y="14" width="18" height="6" rx="2"/>
    <path d="M7 7h.01M7 17h.01"/>
  </symbol>
  <symbol id="database" viewBox="0 0 24 24">
    <ellipse cx="12" cy="5" rx="8" ry="3"/>
    <path d="M4 5v7c0 1.7 3.6 3 8 3s8-1.3 8-3V5"/>
    <path d="M4 12v7c0 1.7 3.6 3 8 3s8-1.3 8-3v-7"/>
  </symbol>
  <symbol id="chevron-left" viewBox="0 0 24 24">
    <path d="m15 18-6-6 6-6"/>
  </symbol>
  <symbol id="chevron-right" viewBox="0 0 24 24">
    <path d="m9 18 6-6-6-6"/>
  </symbol>
  <symbol id="chevron-down" viewBox="0 0 24 24">
    <path d="m6 9 6 6 6-6"/>
  </symbol>
  <symbol id="edit" viewBox="0 0 24 24">
    <path d="M12 20h9M16.5 3.5a2.1 2.1 0 0 1 3 3L7 19l-4 1 1-4L16.5 3.5Z"/>
  </symbol>
  <symbol id="archive" viewBox="0 0 24 24">
    <path d="M4 7h16v13H4zM3 3h18v4H3zM9 11h6"/>
  </symbol>
  <symbol id="restore" viewBox="0 0 24 24">
    <path d="M3 12a9 9 0 1 0 3-6.7L3 8"/>
    <path d="M3 3v5h5"/>
  </symbol>
  <symbol id="trash" viewBox="0 0 24 24">
    <path d="M4 7h16M9 7V4h6v3M7 7l1 14h8l1-14M10 11v6M14 11v6"/>
  </symbol>
  <symbol id="download" viewBox="0 0 24 24">
    <path d="M12 3v12M7 10l5 5 5-5M4 21h16"/>
  </symbol>
  <symbol id="upload" viewBox="0 0 24 24">
    <path d="M12 16V4M7 9l5-5 5 5M4 20h16"/>
  </symbol>
  <symbol id="refresh" viewBox="0 0 24 24">
    <path d="M20 7v5h-5M4 17v-5h5"/>
    <path d="M6.1 8a7 7 0 0 1 11.8-2.2L20 8M4 16l2.1 2.2A7 7 0 0 0 17.9 16"/>
  </symbol>
  <symbol id="filter" viewBox="0 0 24 24">
    <path d="M3 5h18l-7 8v6l-4 2v-8L3 5Z"/>
  </symbol>
  <symbol id="arrow-up" viewBox="0 0 24 24">
    <path d="M12 19V5M6 11l6-6 6 6"/>
  </symbol>
  <symbol id="arrow-down" viewBox="0 0 24 24">
    <path d="M12 5v14M18 13l-6 6-6-6"/>
  </symbol>
  <symbol id="adjust" viewBox="0 0 24 24">
    <path d="M4 7h10M18 7h2M4 17h2M10 17h10"/>
    <circle cx="16" cy="7" r="2"/>
    <circle cx="8" cy="17" r="2"/>
  </symbol>
  <symbol id="category" viewBox="0 0 24 24">
    <path d="M4 4h6v6H4zM14 4h6v6h-6zM4 14h6v6H4zM14 14h6v6h-6z"/>
  </symbol>
  <symbol id="location" viewBox="0 0 24 24">
    <path d="M20 10c0 6-8 11-8 11S4 16 4 10a8 8 0 1 1 16 0Z"/>
    <circle cx="12" cy="10" r="2.5"/>
  </symbol>
  <symbol id="save" viewBox="0 0 24 24">
    <path d="M4 4h13l3 3v13H4V4Z"/>
    <path d="M8 4v6h8V4M8 20v-6h8v6"/>
  </symbol>
  <symbol id="power" viewBox="0 0 24 24">
    <path d="M12 3v9M7.1 5.8a8 8 0 1 0 9.8 0"/>
  </symbol>
  <symbol id="command" viewBox="0 0 24 24">
    <path d="M9 6a3 3 0 1 0-3 3h12a3 3 0 1 0-3-3v12a3 3 0 1 0 3-3H6a3 3 0 1 0 3 3V6Z"/>
  </symbol>
  <symbol id="clock" viewBox="0 0 24 24">
    <circle cx="12" cy="12" r="9"/>
    <path d="M12 7v5l3 2"/>
  </symbol>
  <symbol id="file" viewBox="0 0 24 24">
    <path d="M6 3h8l4 4v14H6V3Z"/>
    <path d="M14 3v5h5M9 13h6M9 17h6"/>
  </symbol>
  <symbol id="shield" viewBox="0 0 24 24">
    <path d="M12 3 4 6v6c0 5 3.4 8 8 9 4.6-1 8-4 8-9V6l-8-3Z"/>
    <path d="m9 12 2 2 4-4"/>
  </symbol>
  <symbol id="more" viewBox="0 0 24 24">
    <circle cx="5" cy="12" r="1"/>
    <circle cx="12" cy="12" r="1"/>
    <circle cx="19" cy="12" r="1"/>
  </symbol>
  <symbol id="box-open" viewBox="0 0 24 24">
    <path d="m4 8 8 4 8-4M4 8l4-4 4 4 4-4 4 4v9l-8 4-8-4V8Z"/>
    <path d="M12 12v9"/>
  </symbol>
  <symbol id="wifi-off" viewBox="0 0 24 24">
    <path d="m3 3 18 18M8.5 8.5A10 10 0 0 0 5 11M19 11a10 10 0 0 0-7-3c-.5 0-1 0-1.5.1M8.5 15.5A5 5 0 0 1 12 14c1.4 0 2.6.5 3.5 1.5M12 19h.01"/>
  </symbol>
  <symbol id="calendar" viewBox="0 0 24 24">
    <rect x="3" y="5" width="18" height="16" rx="2"/>
    <path d="M8 3v4M16 3v4M3 10h18"/>
  </symbol>
</svg>
